<svg width="60" height="55" viewBox="0 0 60 55" fill="none" xmlns="http://www.w3.org/2000/svg">
<ellipse cx="29.1747" cy="47" rx="6.98083" ry="8" fill="#4318FF"/>
<ellipse cx="29.1745" cy="47" rx="4.36301" ry="5" fill="white"/>
<path d="M0.5 6C0.5 2.68629 3.18629 0 6.5 0H53.3861C56.6998 0 59.3861 2.68629 59.3861 6V22.6316C59.3861 25.9453 56.6998 28.6316 53.3861 28.6316H39.6911C36.2648 28.6316 33.0225 30.182 30.8715 32.8489C30.3941 33.4408 29.4921 33.4408 29.0147 32.8489C26.8637 30.182 23.6214 28.6316 20.1951 28.6316H6.5C3.18629 28.6316 0.5 25.9453 0.5 22.6316V6Z" fill="#4318FF"/>
<path d="M14.6991 17V9.3H17.5261C18.1421 9.3 18.6481 9.40633 19.0441 9.619C19.4474 9.82433 19.7481 10.1067 19.9461 10.466C20.1441 10.818 20.2431 11.2103 20.2431 11.643C20.2431 12.1123 20.1184 12.5413 19.8691 12.93C19.6271 13.3187 19.2457 13.601 18.7251 13.777L20.3201 17H18.7031L17.2731 13.964H16.1071V17H14.6991ZM16.1071 12.93H17.4381C17.9074 12.93 18.2521 12.8163 18.4721 12.589C18.6921 12.3617 18.8021 12.061 18.8021 11.687C18.8021 11.3203 18.6921 11.027 18.4721 10.807C18.2594 10.587 17.9111 10.477 17.4271 10.477H16.1071V12.93ZM23.4579 17.132C22.9739 17.132 22.5486 17.055 22.1819 16.901C21.8152 16.7397 21.5219 16.5197 21.3019 16.241C21.0819 15.9623 20.9499 15.6397 20.9059 15.273H22.3249C22.3689 15.4857 22.4862 15.669 22.6769 15.823C22.8749 15.9697 23.1279 16.043 23.4359 16.043C23.7439 16.043 23.9676 15.9807 24.1069 15.856C24.2536 15.7313 24.3269 15.5883 24.3269 15.427C24.3269 15.1923 24.2242 15.0347 24.0189 14.954C23.8136 14.866 23.5276 14.7817 23.1609 14.701C22.9262 14.6497 22.6879 14.5873 22.4459 14.514C22.2039 14.4407 21.9802 14.349 21.7749 14.239C21.5769 14.1217 21.4156 13.975 21.2909 13.799C21.1662 13.6157 21.1039 13.392 21.1039 13.128C21.1039 12.644 21.2946 12.237 21.6759 11.907C22.0646 11.577 22.6072 11.412 23.3039 11.412C23.9492 11.412 24.4626 11.5623 24.8439 11.863C25.2326 12.1637 25.4636 12.578 25.5369 13.106H24.2059C24.1252 12.7027 23.8209 12.501 23.2929 12.501C23.0289 12.501 22.8236 12.5523 22.6769 12.655C22.5376 12.7577 22.4679 12.886 22.4679 13.04C22.4679 13.2013 22.5742 13.3297 22.7869 13.425C22.9996 13.5203 23.2819 13.6083 23.6339 13.689C24.0152 13.777 24.3636 13.876 24.6789 13.986C25.0016 14.0887 25.2582 14.2463 25.4489 14.459C25.6396 14.6643 25.7349 14.9613 25.7349 15.35C25.7422 15.6873 25.6542 15.9917 25.4709 16.263C25.2876 16.5343 25.0236 16.747 24.6789 16.901C24.3342 17.055 23.9272 17.132 23.4579 17.132ZM27.3672 17.077C27.1105 17.077 26.8979 16.9963 26.7292 16.835C26.5679 16.6737 26.4872 16.4793 26.4872 16.252C26.4872 16.0173 26.5679 15.8193 26.7292 15.658C26.8979 15.4967 27.1105 15.416 27.3672 15.416C27.6239 15.416 27.8329 15.4967 27.9942 15.658C28.1629 15.8193 28.2472 16.0173 28.2472 16.252C28.2472 16.4793 28.1629 16.6737 27.9942 16.835C27.8329 16.9963 27.6239 17.077 27.3672 17.077ZM32.1909 17.077C31.9342 17.077 31.7215 16.9963 31.5529 16.835C31.3915 16.6737 31.3109 16.4793 31.3109 16.252C31.3109 16.0173 31.3915 15.8193 31.5529 15.658C31.7215 15.4967 31.9342 15.416 32.1909 15.416C32.4475 15.416 32.6565 15.4967 32.8179 15.658C32.9865 15.8193 33.0709 16.0173 33.0709 16.252C33.0709 16.4793 32.9865 16.6737 32.8179 16.835C32.6565 16.9963 32.4475 17.077 32.1909 17.077ZM34.6135 17.077C34.3568 17.077 34.1441 16.9963 33.9755 16.835C33.8141 16.6737 33.7335 16.4793 33.7335 16.252C33.7335 16.0173 33.8141 15.8193 33.9755 15.658C34.1441 15.4967 34.3568 15.416 34.6135 15.416C34.8701 15.416 35.0791 15.4967 35.2405 15.658C35.4091 15.8193 35.4935 16.0173 35.4935 16.252C35.4935 16.4793 35.4091 16.6737 35.2405 16.835C35.0791 16.9963 34.8701 17.077 34.6135 17.077ZM37.036 17.077C36.7794 17.077 36.5667 16.9963 36.398 16.835C36.2367 16.6737 36.156 16.4793 36.156 16.252C36.156 16.0173 36.2367 15.8193 36.398 15.658C36.5667 15.4967 36.7794 15.416 37.036 15.416C37.2927 15.416 37.5017 15.4967 37.663 15.658C37.8317 15.8193 37.916 16.0173 37.916 16.252C37.916 16.4793 37.8317 16.6737 37.663 16.835C37.5017 16.9963 37.2927 17.077 37.036 17.077ZM39.4586 17.077C39.2019 17.077 38.9893 16.9963 38.8206 16.835C38.6593 16.6737 38.5786 16.4793 38.5786 16.252C38.5786 16.0173 38.6593 15.8193 38.8206 15.658C38.9893 15.4967 39.2019 15.416 39.4586 15.416C39.7153 15.416 39.9243 15.4967 40.0856 15.658C40.2543 15.8193 40.3386 16.0173 40.3386 16.252C40.3386 16.4793 40.2543 16.6737 40.0856 16.835C39.9243 16.9963 39.7153 17.077 39.4586 17.077ZM41.8812 17.077C41.6245 17.077 41.4119 16.9963 41.2432 16.835C41.0819 16.6737 41.0012 16.4793 41.0012 16.252C41.0012 16.0173 41.0819 15.8193 41.2432 15.658C41.4119 15.4967 41.6245 15.416 41.8812 15.416C42.1379 15.416 42.3469 15.4967 42.5082 15.658C42.6769 15.8193 42.7612 16.0173 42.7612 16.252C42.7612 16.4793 42.6769 16.6737 42.5082 16.835C42.3469 16.9963 42.1379 17.077 41.8812 17.077ZM44.3038 17.077C44.0471 17.077 43.8344 16.9963 43.6658 16.835C43.5044 16.6737 43.4238 16.4793 43.4238 16.252C43.4238 16.0173 43.5044 15.8193 43.6658 15.658C43.8344 15.4967 44.0471 15.416 44.3038 15.416C44.5604 15.416 44.7694 15.4967 44.9308 15.658C45.0994 15.8193 45.1838 16.0173 45.1838 16.252C45.1838 16.4793 45.0994 16.6737 44.9308 16.835C44.7694 16.9963 44.5604 17.077 44.3038 17.077ZM46.7263 17.077C46.4697 17.077 46.257 16.9963 46.0883 16.835C45.927 16.6737 45.8463 16.4793 45.8463 16.252C45.8463 16.0173 45.927 15.8193 46.0883 15.658C46.257 15.4967 46.4697 15.416 46.7263 15.416C46.983 15.416 47.192 15.4967 47.3533 15.658C47.522 15.8193 47.6063 16.0173 47.6063 16.252C47.6063 16.4793 47.522 16.6737 47.3533 16.835C47.192 16.9963 46.983 17.077 46.7263 17.077Z" fill="white"/>
</svg>
