<svg width="28" height="28" viewBox="0 0 28 28" fill="none" xmlns="http://www.w3.org/2000/svg">
<g clip-path="url(#clip0_111_972)" filter="url(#filter0_d_111_972)">
<path d="M12.0001 19V14H16.0001V19C16.0001 19.55 16.4501 20 17.0001 20H20.0001C20.5501 20 21.0001 19.55 21.0001 19V12H22.7001C23.1601 12 23.3801 11.43 23.0301 11.13L14.6701 3.6C14.2901 3.26 13.7101 3.26 13.3301 3.6L4.9701 11.13C4.6301 11.43 4.8401 12 5.3001 12H7.0001V19C7.0001 19.55 7.4501 20 8.0001 20H11.0001C11.5501 20 12.0001 19.55 12.0001 19Z" fill="#4318FF"/>
</g>
<defs>
<filter id="filter0_d_111_972" x="-2" y="0" width="32" height="32" filterUnits="userSpaceOnUse" color-interpolation-filters="sRGB">
<feFlood flood-opacity="0" result="BackgroundImageFix"/>
<feColorMatrix in="SourceAlpha" type="matrix" values="0 0 0 0 0 0 0 0 0 0 0 0 0 0 0 0 0 0 127 0" result="hardAlpha"/>
<feOffset dy="4"/>
<feGaussianBlur stdDeviation="2"/>
<feComposite in2="hardAlpha" operator="out"/>
<feColorMatrix type="matrix" values="0 0 0 0 0 0 0 0 0 0 0 0 0 0 0 0 0 0 0.25 0"/>
<feBlend mode="normal" in2="BackgroundImageFix" result="effect1_dropShadow_111_972"/>
<feBlend mode="normal" in="SourceGraphic" in2="effect1_dropShadow_111_972" result="shape"/>
</filter>
<clipPath id="clip0_111_972">
<rect width="24" height="24" fill="white" transform="translate(2)"/>
</clipPath>
</defs>
</svg>
