<svg width="24" height="24" viewBox="0 0 24 24" fill="none" xmlns="http://www.w3.org/2000/svg">
<g clip-path="url(#clip0_111_944)">
<path fill-rule="evenodd" clip-rule="evenodd" d="M20.5833 23.2917H6.49992C5.49431 23.2917 4.52988 22.8922 3.81881 22.1811C3.10773 21.47 2.70825 20.5056 2.70825 19.5V5.35492C2.70825 4.199 3.85225 3.46559 4.85867 3.81442C5.00275 3.86425 5.14359 3.93684 5.27792 4.03325L5.4675 4.16867C5.92863 4.49587 6.48029 4.67118 7.0457 4.67021C7.61112 4.66923 8.16217 4.49203 8.62217 4.16325C9.26788 3.70372 10.0407 3.45679 10.8333 3.45679C11.6258 3.45679 12.3986 3.70372 13.0443 4.16325C13.5043 4.49203 14.0554 4.66923 14.6208 4.67021C15.1862 4.67118 15.7379 4.49587 16.199 4.16867L16.3886 4.03325C17.4643 3.26409 18.9583 4.03325 18.9583 5.35492V13.5417H22.7499C22.9654 13.5417 23.1721 13.6273 23.3244 13.7796C23.4768 13.932 23.5624 14.1387 23.5624 14.3542V20.3125C23.5624 21.1026 23.2485 21.8604 22.6898 22.4191C22.1311 22.9778 21.3734 23.2917 20.5833 23.2917ZM19.2291 15.1667V20.3125C19.2291 20.6717 19.3718 21.0161 19.6257 21.27C19.8797 21.524 20.2241 21.6667 20.5833 21.6667C20.9424 21.6667 21.2868 21.524 21.5408 21.27C21.7947 21.0161 21.9374 20.6717 21.9374 20.3125V15.1667H19.2291ZM14.6249 10.5625C14.6249 10.347 14.5393 10.1404 14.3869 9.98798C14.2346 9.83561 14.0279 9.75 13.8124 9.75H7.31242C7.09693 9.75 6.89027 9.83561 6.73789 9.98798C6.58552 10.1404 6.49992 10.347 6.49992 10.5625C6.49992 10.778 6.58552 10.9847 6.73789 11.137C6.89027 11.2894 7.09693 11.375 7.31242 11.375H13.8124C14.0279 11.375 14.2346 11.2894 14.3869 11.137C14.5393 10.9847 14.6249 10.778 14.6249 10.5625ZM13.5416 13.8125C13.5416 13.597 13.456 13.3904 13.3036 13.238C13.1512 13.0856 12.9446 13 12.7291 13H7.31242C7.09693 13 6.89027 13.0856 6.73789 13.238C6.58552 13.3904 6.49992 13.597 6.49992 13.8125C6.49992 14.028 6.58552 14.2347 6.73789 14.387C6.89027 14.5394 7.09693 14.625 7.31242 14.625H12.7291C12.9446 14.625 13.1512 14.5394 13.3036 14.387C13.456 14.2347 13.5416 14.028 13.5416 13.8125ZM13.8124 16.25C14.0279 16.25 14.2346 16.3356 14.3869 16.488C14.5393 16.6404 14.6249 16.847 14.6249 17.0625C14.6249 17.278 14.5393 17.4847 14.3869 17.637C14.2346 17.7894 14.0279 17.875 13.8124 17.875H7.31242C7.09693 17.875 6.89027 17.7894 6.73789 17.637C6.58552 17.4847 6.49992 17.278 6.49992 17.0625C6.49992 16.847 6.58552 16.6404 6.73789 16.488C6.89027 16.3356 7.09693 16.25 7.31242 16.25H13.8124Z" fill="#A3AED0"/>
</g>
<defs>
<clipPath id="clip0_111_944">
<rect width="24" height="24" fill="white"/>
</clipPath>
</defs>
</svg>
