<svg width="151" height="151" viewBox="0 0 151 151" fill="none" xmlns="http://www.w3.org/2000/svg">
<g filter="url(#filter0_d_111_1054)">
<circle cx="75.4999" cy="71.5001" r="71.4999" transform="rotate(-90 75.4999 71.5001)" fill="#EFF4FB"/>
<circle cx="75.4999" cy="71.5001" r="71.4999" transform="rotate(-90 75.4999 71.5001)" fill="#6AD2FF"/>
<path d="M75.4999 0.00017779C86.5151 0.000179322 97.3813 2.54519 107.251 7.43668C117.12 12.3282 125.726 19.4338 132.397 28.1993C139.068 36.9647 143.623 47.1529 145.708 57.969C147.792 68.7851 147.35 79.9366 144.414 90.5534C141.479 101.17 136.13 110.965 128.786 119.175C121.441 127.384 112.299 133.785 102.073 137.879C91.8469 141.972 80.8132 143.648 69.8327 142.775C58.8522 141.902 48.2219 138.504 38.7712 132.845L75.4999 71.5001L75.4999 0.00017779Z" fill="#4318FF"/>
</g>
<defs>
<filter id="filter0_d_111_1054" x="0" y="0.000183105" width="151" height="151" filterUnits="userSpaceOnUse" color-interpolation-filters="sRGB">
<feFlood flood-opacity="0" result="BackgroundImageFix"/>
<feColorMatrix in="SourceAlpha" type="matrix" values="0 0 0 0 0 0 0 0 0 0 0 0 0 0 0 0 0 0 127 0" result="hardAlpha"/>
<feOffset dy="4"/>
<feGaussianBlur stdDeviation="2"/>
<feComposite in2="hardAlpha" operator="out"/>
<feColorMatrix type="matrix" values="0 0 0 0 0 0 0 0 0 0 0 0 0 0 0 0 0 0 0.25 0"/>
<feBlend mode="normal" in2="BackgroundImageFix" result="effect1_dropShadow_111_1054"/>
<feBlend mode="normal" in="SourceGraphic" in2="effect1_dropShadow_111_1054" result="shape"/>
</filter>
</defs>
</svg>
