<svg width="24" height="24" viewBox="0 0 24 24" fill="none" xmlns="http://www.w3.org/2000/svg">
<g clip-path="url(#clip0_111_1025)">
<path d="M19.5 20.5833H6.5V19.0667C6.5 16.9 10.8333 15.7083 13 15.7083C15.1667 15.7083 19.5 16.9 19.5 19.0667M13 7.58334C13.862 7.58334 14.6886 7.92575 15.2981 8.53525C15.9076 9.14474 16.25 9.97139 16.25 10.8333C16.25 11.6953 15.9076 12.5219 15.2981 13.1314C14.6886 13.7409 13.862 14.0833 13 14.0833C12.138 14.0833 11.3114 13.7409 10.7019 13.1314C10.0924 12.5219 9.75 11.6953 9.75 10.8333C9.75 9.97139 10.0924 9.14474 10.7019 8.53525C11.3114 7.92575 12.138 7.58334 13 7.58334ZM13 3.25001C13.2873 3.25001 13.5629 3.36415 13.766 3.56731C13.9692 3.77048 14.0833 4.04603 14.0833 4.33334C14.0833 4.62066 13.9692 4.89621 13.766 5.09938C13.5629 5.30254 13.2873 5.41668 13 5.41668C12.7127 5.41668 12.4371 5.30254 12.234 5.09938C12.0308 4.89621 11.9167 4.62066 11.9167 4.33334C11.9167 4.04603 12.0308 3.77048 12.234 3.56731C12.4371 3.36415 12.7127 3.25001 13 3.25001ZM20.5833 3.25001H16.055C15.6 1.99334 14.4083 1.08334 13 1.08334C11.5917 1.08334 10.4 1.99334 9.945 3.25001H5.41667C4.84203 3.25001 4.29093 3.47828 3.8846 3.88461C3.47827 4.29094 3.25 4.84204 3.25 5.41668V20.5833C3.25 21.158 3.47827 21.7091 3.8846 22.1154C4.29093 22.5217 4.84203 22.75 5.41667 22.75H20.5833C21.158 22.75 21.7091 22.5217 22.1154 22.1154C22.5217 21.7091 22.75 21.158 22.75 20.5833V5.41668C22.75 4.84204 22.5217 4.29094 22.1154 3.88461C21.7091 3.47828 21.158 3.25001 20.5833 3.25001Z" fill="#A3AED0"/>
</g>
<defs>
<clipPath id="clip0_111_1025">
<rect width="24" height="24" fill="white"/>
</clipPath>
</defs>
</svg>
